<svg xmlns="http://www.w3.org/2000/svg" width="199" height="193.667" viewBox="0 0 199 193.667">
  <g id="Group_1179" data-name="Group 1179" transform="translate(-864 -5096.696)">
    <path id="Path_1609" data-name="Path 1609" d="M334.351,72.627c11.969-.057,46.892-1.213,58.215-12.536a35.2,35.2,0,0,0-49.78-49.78c-11.323,11.32-12.48,46.246-12.536,58.215a4.077,4.077,0,0,0,4.1,4.1" transform="translate(660.124 5096.696)" fill="#80b2ed"/>
    <path id="Path_1610" data-name="Path 1610" d="M334.349,238.924a4.077,4.077,0,0,0-4.1,4.1c.056,11.972,1.216,46.9,12.536,58.218a35.2,35.2,0,1,0,49.78-49.78c-11.32-11.323-46.246-12.48-58.215-12.536" transform="translate(660.125 4949.199)" fill="#80b2ed"/>
    <path id="Path_1611" data-name="Path 1611" d="M102.42,10.31a35.2,35.2,0,0,0,0,49.78c11.323,11.323,46.249,12.48,58.218,12.537a4.077,4.077,0,0,0,4.1-4.1c-.056-11.971-1.213-46.895-12.536-58.218a35.2,35.2,0,0,0-49.783,0" transform="translate(807.135 5096.696)" fill="#80b2ed"/>
    <path id="Path_1612" data-name="Path 1612" d="M68.908,253.433c-4.782-9.036-14.348-14.88-27.633-14.88C18.248,238.553,0,257.5,0,289.742s18.247,51.193,41.273,51.193c13.285,0,22.851-5.847,27.633-14.88v13.64h39.144v-99.9H68.908ZM54.382,306.571c-8.15,0-14.526-5.844-14.526-16.828s6.376-16.825,14.526-16.825,14.526,5.844,14.526,16.825-6.38,16.828-14.526,16.828" transform="translate(863.999 4949.428)" fill="#80b2ed"/>
  </g>
</svg>
